<svg width="28" height="28" viewBox="0 0 28 28" fill="none" xmlns="http://www.w3.org/2000/svg">
<g clip-path="url(#clip0_5_60)">
<path d="M24.5 11.6667C24.5 19.8333 14 26.8333 14 26.8333C14 26.8333 3.5 19.8333 3.5 11.6667C3.5 8.88188 4.60625 6.21117 6.57538 4.24204C8.54451 2.2729 11.2152 1.16666 14 1.16666C16.7848 1.16666 19.4555 2.2729 21.4246 4.24204C23.3938 6.21117 24.5 8.88188 24.5 11.6667Z" stroke="#1E1E1E" stroke-width="3" stroke-linecap="round" stroke-linejoin="round"/>
<path d="M14 15.1667C15.933 15.1667 17.5 13.5997 17.5 11.6667C17.5 9.73366 15.933 8.16666 14 8.16666C12.067 8.16666 10.5 9.73366 10.5 11.6667C10.5 13.5997 12.067 15.1667 14 15.1667Z" stroke="#1E1E1E" stroke-width="3" stroke-linecap="round" stroke-linejoin="round"/>
</g>
<defs>
<clipPath id="clip0_5_60">
<rect width="28" height="28" fill="white"/>
</clipPath>
</defs>
</svg>
