<svg width="20" height="20" viewBox="0 0 20 20" fill="none" xmlns="http://www.w3.org/2000/svg">
<path d="M8.6739 11.0432C9.04071 11.5468 9.5087 11.9634 10.0461 12.2648C10.5835 12.5663 11.1778 12.7456 11.7886 12.7905C12.3995 12.8354 13.0126 12.7449 13.5863 12.5252C14.1601 12.3054 14.6811 11.9615 15.1141 11.5168L17.6765 8.88584C18.4544 8.05883 18.8849 6.95118 18.8751 5.80145C18.8654 4.65173 18.4163 3.55192 17.6245 2.73892C16.8326 1.92591 15.7615 1.46475 14.6417 1.45476C13.522 1.44476 12.4432 1.88674 11.6377 2.6855L10.1686 4.18516M12.0904 9.28926C11.7236 8.78575 11.2556 8.36913 10.7182 8.06766C10.1808 7.76619 9.58654 7.58691 8.97571 7.542C8.36488 7.49708 7.75179 7.58757 7.17802 7.80733C6.60425 8.02709 6.08322 8.37099 5.65027 8.81568L3.08787 11.4467C2.30993 12.2737 1.87947 13.3813 1.8892 14.5311C1.89893 15.6808 2.34807 16.7806 3.13989 17.5936C3.93171 18.4066 5.00284 18.8678 6.1226 18.8778C7.24236 18.8877 8.32114 18.4458 9.12659 17.647L10.5872 16.1473" stroke="#B3B3B3" stroke-width="2" stroke-linecap="round" stroke-linejoin="round"/>
</svg>
