<svg width="347" height="77" viewBox="0 0 347 77" fill="none" xmlns="http://www.w3.org/2000/svg">
<path d="M94.605 7.32433L106.446 6.16908M94.605 7.32433L76.9911 20.2122L66.9809 39.5022M94.605 7.32433L92.6531 14.5182M106.446 6.16908L122.411 18.9963M106.446 6.16908L95.8994 14.617M122.411 18.9963L115.747 56.4671L109.718 69.4911M122.411 18.9963L116.484 32.2399M109.718 69.4911L104.415 72.9022M109.718 69.4911L107.571 65.3119M104.415 72.9022L81.4192 66.8977L68.9534 52.9862M104.415 72.9022L104.577 67.6025M68.9534 52.9862L66.9809 39.5022M68.9534 52.9862L72.6462 49.093M66.9809 39.5022L92.6531 14.5182M66.9809 39.5022L72.6462 49.093M92.6531 14.5182L95.8994 14.617M95.8994 14.617L110.857 32.0686M116.484 32.2399L110.857 32.0686M116.484 32.2399L107.571 65.3119M110.857 32.0686L98.7574 55.9501M107.571 65.3119L104.577 67.6025M104.577 67.6025L98.7574 55.9501M98.7574 55.9501L72.6462 49.093" stroke="#A39898" stroke-width="3"/>
<path d="M22.694 62.896C21.7127 62.896 20.71 62.7893 19.686 62.576C18.7047 62.4053 17.7447 62.1493 16.806 61.808C15.91 61.424 15.078 60.9973 14.31 60.528C13.542 60.016 12.9233 59.4613 12.454 58.864C12.1553 58.4373 11.942 58.0747 11.814 57.776C11.686 57.4773 11.6647 57.2 11.75 56.944C11.878 56.688 12.0913 56.4533 12.39 56.24C12.8593 55.728 13.3073 55.5147 13.734 55.6C14.1607 55.6853 14.7153 56.0907 15.398 56.816C15.782 57.2427 16.2727 57.648 16.87 58.032C17.4673 58.3733 18.1073 58.672 18.79 58.928C19.4727 59.184 20.1553 59.376 20.838 59.504C21.5207 59.632 22.1607 59.696 22.758 59.696C25.1047 59.696 27.0033 59.248 28.454 58.352C29.9047 57.4133 30.63 56.1547 30.63 54.576C30.63 53.7653 30.4807 53.0613 30.182 52.464C29.8833 51.824 29.478 51.2907 28.966 50.864C28.454 50.4373 27.8567 50.0747 27.174 49.776C26.534 49.4347 25.8087 49.1573 24.998 48.944C24.23 48.688 23.4407 48.4533 22.63 48.24C21.4353 47.9413 20.2407 47.6213 19.046 47.28C17.894 46.896 16.8487 46.4267 15.91 45.872C14.9713 45.3173 14.2033 44.592 13.606 43.696C13.0513 42.8 12.774 41.648 12.774 40.24C12.774 38.6187 13.1793 37.2107 13.99 36.016C14.8433 34.8213 16.0167 33.8827 17.51 33.2C19.0033 32.5173 20.7313 32.176 22.694 32.176C23.6753 32.176 24.5927 32.2613 25.446 32.432C26.2993 32.56 27.0887 32.7733 27.814 33.072C28.582 33.3707 29.286 33.7333 29.926 34.16C30.6087 34.544 31.2273 35.0133 31.782 35.568C32.294 36.0373 32.5713 36.464 32.614 36.848C32.6567 37.232 32.5073 37.6373 32.166 38.064C31.782 38.4907 31.3767 38.7467 30.95 38.832C30.5233 38.8747 30.0753 38.6613 29.606 38.192C28.9233 37.5093 28.198 36.976 27.43 36.592C26.7047 36.1653 25.9367 35.8453 25.126 35.632C24.358 35.4187 23.5473 35.312 22.694 35.312C21.4567 35.312 20.3473 35.5253 19.366 35.952C18.3847 36.336 17.6167 36.912 17.062 37.68C16.55 38.4053 16.294 39.2587 16.294 40.24C16.294 40.9653 16.4647 41.584 16.806 42.096C17.19 42.5653 17.6807 42.9707 18.278 43.312C18.8753 43.6533 19.5793 43.952 20.39 44.208C21.2007 44.464 22.054 44.72 22.95 44.976C24.23 45.3173 25.5313 45.7013 26.854 46.128C28.1767 46.512 29.3713 47.0453 30.438 47.728C31.5473 48.368 32.4433 49.2213 33.126 50.288C33.8087 51.3547 34.15 52.7413 34.15 54.448C34.15 57.008 33.062 59.056 30.886 60.592C28.7527 62.128 26.022 62.896 22.694 62.896ZM54.9555 62.704C53.0355 62.704 51.4142 62.5333 50.0915 62.192C48.8115 61.8507 47.7662 61.3173 46.9555 60.592C46.1448 59.8667 45.5688 58.9067 45.2275 57.712C44.8862 56.4747 44.7155 54.96 44.7155 53.168V23.728C44.7155 23.216 44.7582 22.832 44.8435 22.576C44.9715 22.2773 45.1635 22.064 45.4195 21.936C45.6755 21.808 46.0168 21.744 46.4435 21.744C46.9128 21.744 47.2755 21.808 47.5315 21.936C47.8302 22.0213 48.0435 22.192 48.1715 22.448C48.2995 22.704 48.3635 23.0667 48.3635 23.536V53.296C48.3635 54.6187 48.4702 55.6853 48.6835 56.496C48.9395 57.264 49.3022 57.84 49.7715 58.224C50.2835 58.608 50.9662 58.864 51.8195 58.992C52.6728 59.0773 53.6968 59.12 54.8915 59.12C55.4035 59.12 55.7875 59.184 56.0435 59.312C56.3422 59.3973 56.5555 59.568 56.6835 59.824C56.8115 60.08 56.8755 60.4427 56.8755 60.912C56.8755 61.3813 56.8115 61.744 56.6835 62C56.5555 62.256 56.3422 62.4267 56.0435 62.512C55.7875 62.64 55.4248 62.704 54.9555 62.704ZM40.7475 33.008L46.4435 33.136L55.3395 33.008C55.8088 33.008 56.1715 33.072 56.4275 33.2C56.7262 33.2853 56.9395 33.456 57.0675 33.712C57.1955 33.968 57.2595 34.3093 57.2595 34.736C57.2595 35.2053 57.1955 35.5893 57.0675 35.888C56.9822 36.144 56.8115 36.336 56.5555 36.464C56.2995 36.5493 55.9368 36.592 55.4675 36.592L46.4435 36.464L40.6195 36.592C39.9368 36.592 39.4675 36.464 39.2115 36.208C38.9555 35.9093 38.8275 35.4187 38.8275 34.736C38.8275 34.096 38.9768 33.648 39.2755 33.392C39.5742 33.136 40.0648 33.008 40.7475 33.008ZM132.153 62.64C131.726 62.64 131.385 62.576 131.129 62.448C130.873 62.32 130.681 62.128 130.553 61.872C130.468 61.5733 130.425 61.1893 130.425 60.72V33.84C130.425 33.4133 130.468 33.0933 130.553 32.88C130.681 32.624 130.873 32.4533 131.129 32.368C131.428 32.24 131.79 32.176 132.217 32.176C132.516 32.176 132.772 32.2187 132.985 32.304C133.198 32.3467 133.369 32.432 133.497 32.56C133.625 32.688 133.71 32.8587 133.753 33.072C133.838 33.2853 133.881 33.5413 133.881 33.84V37.616C134.436 36.8907 135.054 36.208 135.737 35.568C136.42 34.8853 137.166 34.288 137.977 33.776C138.83 33.2213 139.748 32.7947 140.729 32.496C141.753 32.1973 142.884 32.048 144.121 32.048C145.956 32.048 147.641 32.368 149.177 33.008C150.756 33.6053 152.121 34.5013 153.273 35.696C154.425 36.848 155.321 38.2773 155.961 39.984C156.601 41.648 156.921 43.568 156.921 45.744V60.784C156.921 61.2533 156.857 61.6373 156.729 61.936C156.644 62.192 156.473 62.3627 156.217 62.448C155.961 62.576 155.598 62.64 155.129 62.64C154.66 62.64 154.276 62.576 153.977 62.448C153.721 62.32 153.529 62.128 153.401 61.872C153.316 61.5733 153.273 61.1893 153.273 60.72V45.68C153.273 43.5893 152.932 41.776 152.249 40.24C151.566 38.704 150.542 37.5093 149.177 36.656C147.812 35.8027 146.084 35.376 143.993 35.376C141.945 35.376 140.174 35.8027 138.681 36.656C137.188 37.5093 136.036 38.704 135.225 40.24C134.414 41.776 134.009 43.5893 134.009 45.68V60.784C134.009 61.2533 133.945 61.6373 133.817 61.936C133.732 62.192 133.54 62.3627 133.241 62.448C132.985 62.576 132.622 62.64 132.153 62.64ZM179.67 62.832C177.324 62.832 175.169 62.448 173.206 61.68C171.286 60.912 169.622 59.824 168.214 58.416C166.849 57.008 165.782 55.344 165.014 53.424C164.246 51.504 163.862 49.3707 163.862 47.024C163.862 44.2507 164.524 41.7547 165.846 39.536C167.169 37.3173 169.004 35.568 171.35 34.288C173.697 32.9653 176.385 32.304 179.414 32.304C181.377 32.304 183.169 32.6027 184.79 33.2C186.412 33.7973 187.82 34.608 189.014 35.632C190.209 36.656 191.126 37.8293 191.767 39.152C192.449 40.4747 192.79 41.84 192.79 43.248C192.79 45.3387 192.3 46.768 191.319 47.536C190.38 48.2613 189.228 48.624 187.862 48.624H167.702C167.617 50.8853 168.172 52.8267 169.366 54.448C170.604 56.0693 172.14 57.328 173.974 58.224C175.852 59.0773 177.729 59.504 179.606 59.504C180.844 59.504 181.91 59.44 182.806 59.312C183.745 59.184 184.534 59.0133 185.174 58.8C185.857 58.544 186.433 58.3093 186.903 58.096C187.372 57.84 187.798 57.6053 188.182 57.392C188.566 57.136 188.929 56.944 189.271 56.816C189.484 56.7307 189.718 56.7093 189.974 56.752C190.273 56.752 190.486 56.8587 190.615 57.072C190.828 57.3707 190.977 57.648 191.062 57.904C191.148 58.1173 191.191 58.3733 191.191 58.672C191.191 59.056 190.678 59.5893 189.654 60.272C188.63 60.912 187.244 61.488 185.494 62C183.745 62.5547 181.804 62.832 179.67 62.832ZM167.702 45.552H186.774C187.628 45.552 188.289 45.4667 188.758 45.296C189.228 45.0827 189.462 44.4427 189.462 43.376C189.462 41.968 189.014 40.688 188.118 39.536C187.265 38.3413 186.092 37.3813 184.598 36.656C183.105 35.9307 181.398 35.568 179.478 35.568C177.345 35.568 175.361 35.9947 173.526 36.848C171.734 37.7013 170.305 38.896 169.238 40.432C168.172 41.9253 167.66 43.632 167.702 45.552ZM226.599 62.896C225.618 62.896 224.615 62.7893 223.591 62.576C222.61 62.4053 221.65 62.1493 220.711 61.808C219.815 61.424 218.983 60.9973 218.215 60.528C217.447 60.016 216.828 59.4613 216.359 58.864C216.06 58.4373 215.847 58.0747 215.719 57.776C215.591 57.4773 215.57 57.2 215.655 56.944C215.783 56.688 215.996 56.4533 216.295 56.24C216.764 55.728 217.212 55.5147 217.639 55.6C218.066 55.6853 218.62 56.0907 219.303 56.816C219.687 57.2427 220.178 57.648 220.775 58.032C221.372 58.3733 222.012 58.672 222.695 58.928C223.378 59.184 224.06 59.376 224.743 59.504C225.426 59.632 226.066 59.696 226.663 59.696C229.01 59.696 230.908 59.248 232.359 58.352C233.81 57.4133 234.535 56.1547 234.535 54.576C234.535 53.7653 234.386 53.0613 234.087 52.464C233.788 51.824 233.383 51.2907 232.871 50.864C232.359 50.4373 231.762 50.0747 231.079 49.776C230.439 49.4347 229.714 49.1573 228.903 48.944C228.135 48.688 227.346 48.4533 226.535 48.24C225.34 47.9413 224.146 47.6213 222.951 47.28C221.799 46.896 220.754 46.4267 219.815 45.872C218.876 45.3173 218.108 44.592 217.511 43.696C216.956 42.8 216.679 41.648 216.679 40.24C216.679 38.6187 217.084 37.2107 217.895 36.016C218.748 34.8213 219.922 33.8827 221.415 33.2C222.908 32.5173 224.636 32.176 226.599 32.176C227.58 32.176 228.498 32.2613 229.351 32.432C230.204 32.56 230.994 32.7733 231.719 33.072C232.487 33.3707 233.191 33.7333 233.831 34.16C234.514 34.544 235.132 35.0133 235.687 35.568C236.199 36.0373 236.476 36.464 236.519 36.848C236.562 37.232 236.412 37.6373 236.071 38.064C235.687 38.4907 235.282 38.7467 234.855 38.832C234.428 38.8747 233.98 38.6613 233.511 38.192C232.828 37.5093 232.103 36.976 231.335 36.592C230.61 36.1653 229.842 35.8453 229.031 35.632C228.263 35.4187 227.452 35.312 226.599 35.312C225.362 35.312 224.252 35.5253 223.271 35.952C222.29 36.336 221.522 36.912 220.967 37.68C220.455 38.4053 220.199 39.2587 220.199 40.24C220.199 40.9653 220.37 41.584 220.711 42.096C221.095 42.5653 221.586 42.9707 222.183 43.312C222.78 43.6533 223.484 43.952 224.295 44.208C225.106 44.464 225.959 44.72 226.855 44.976C228.135 45.3173 229.436 45.7013 230.759 46.128C232.082 46.512 233.276 47.0453 234.343 47.728C235.452 48.368 236.348 49.2213 237.031 50.288C237.714 51.3547 238.055 52.7413 238.055 54.448C238.055 57.008 236.967 59.056 234.791 60.592C232.658 62.128 229.927 62.896 226.599 62.896ZM249.362 74.864C248.722 74.608 248.338 74.288 248.21 73.904C248.125 73.5627 248.231 73.0507 248.53 72.368L266.002 33.2C266.301 32.5173 266.621 32.0907 266.962 31.92C267.346 31.7493 267.858 31.8133 268.498 32.112C269.138 32.4107 269.501 32.752 269.586 33.136C269.671 33.52 269.565 34.032 269.266 34.672L251.73 73.968C251.431 74.6507 251.111 75.0347 250.77 75.12C250.471 75.2053 250.002 75.12 249.362 74.864ZM256.082 57.52L241.682 35.12C241.298 34.5227 241.149 34.032 241.234 33.648C241.319 33.264 241.639 32.9013 242.194 32.56C242.791 32.176 243.282 32.0267 243.666 32.112C244.093 32.1973 244.498 32.5387 244.882 33.136L258.002 53.936L256.082 57.52ZM277.315 62.64C276.889 62.64 276.547 62.576 276.291 62.448C276.035 62.32 275.843 62.128 275.715 61.872C275.63 61.5733 275.587 61.1893 275.587 60.72V33.84C275.587 33.4133 275.63 33.0933 275.715 32.88C275.843 32.624 276.035 32.4533 276.291 32.368C276.59 32.24 276.953 32.176 277.379 32.176C277.678 32.176 277.934 32.2187 278.147 32.304C278.361 32.3467 278.531 32.432 278.659 32.56C278.787 32.688 278.873 32.8587 278.915 33.072C279.001 33.2853 279.043 33.5413 279.043 33.84V37.616C279.598 36.8907 280.217 36.208 280.899 35.568C281.582 34.8853 282.329 34.288 283.139 33.776C283.993 33.2213 284.91 32.7947 285.891 32.496C286.915 32.1973 288.046 32.048 289.283 32.048C291.118 32.048 292.803 32.368 294.339 33.008C295.918 33.6053 297.283 34.5013 298.435 35.696C299.587 36.848 300.483 38.2773 301.123 39.984C301.763 41.648 302.083 43.568 302.083 45.744V60.784C302.083 61.2533 302.019 61.6373 301.891 61.936C301.806 62.192 301.635 62.3627 301.379 62.448C301.123 62.576 300.761 62.64 300.291 62.64C299.822 62.64 299.438 62.576 299.139 62.448C298.883 62.32 298.691 62.128 298.563 61.872C298.478 61.5733 298.435 61.1893 298.435 60.72V45.68C298.435 43.5893 298.094 41.776 297.411 40.24C296.729 38.704 295.705 37.5093 294.339 36.656C292.974 35.8027 291.246 35.376 289.155 35.376C287.107 35.376 285.337 35.8027 283.843 36.656C282.35 37.5093 281.198 38.704 280.387 40.24C279.577 41.776 279.171 43.5893 279.171 45.68V60.784C279.171 61.2533 279.107 61.6373 278.979 61.936C278.894 62.192 278.702 62.3627 278.403 62.448C278.147 62.576 277.785 62.64 277.315 62.64ZM324.833 62.704C322.486 62.704 320.332 62.3413 318.369 61.616C316.449 60.8907 314.785 59.8667 313.377 58.544C311.969 57.1787 310.881 55.5787 310.113 53.744C309.388 51.8667 309.025 49.776 309.025 47.472C309.025 45.168 309.388 43.0987 310.113 41.264C310.881 39.3867 311.948 37.7653 313.313 36.4C314.721 35.0347 316.385 33.9893 318.305 33.264C320.225 32.5387 322.358 32.176 324.705 32.176C326.113 32.176 327.542 32.432 328.993 32.944C330.486 33.4133 331.83 34.0533 333.025 34.864C334.22 35.632 335.073 36.5067 335.585 37.488C335.884 38.0427 336.033 38.448 336.033 38.704C336.033 38.96 335.926 39.216 335.713 39.472C335.457 39.7707 335.158 40.0053 334.817 40.176C334.518 40.3467 334.241 40.432 333.985 40.432C333.473 40.432 332.982 40.1333 332.513 39.536C332.086 38.9387 331.574 38.4053 330.977 37.936C330.38 37.4667 329.718 37.0613 328.993 36.72C328.31 36.3787 327.606 36.1227 326.881 35.952C326.156 35.7387 325.43 35.632 324.705 35.632C322.316 35.632 320.225 36.1227 318.433 37.104C316.641 38.0853 315.254 39.472 314.273 41.264C313.292 43.0133 312.801 45.0827 312.801 47.472C312.801 49.8187 313.292 51.888 314.273 53.68C315.254 55.4293 316.62 56.7947 318.369 57.776C320.161 58.7573 322.23 59.248 324.577 59.248C325.558 59.248 326.54 59.12 327.521 58.864C328.502 58.608 329.441 58.2453 330.337 57.776C331.233 57.264 332.001 56.688 332.641 56.048C332.982 55.7493 333.26 55.5147 333.473 55.344C333.729 55.1307 334.028 55.024 334.369 55.024C334.625 55.024 334.86 55.1307 335.073 55.344C335.329 55.5147 335.585 55.7707 335.841 56.112C336.012 56.2827 336.118 56.496 336.161 56.752C336.204 56.9653 336.182 57.2 336.097 57.456C336.054 57.712 335.926 57.9467 335.713 58.16C334.817 59.056 333.729 59.8453 332.449 60.528C331.212 61.2107 329.91 61.744 328.545 62.128C327.222 62.512 325.985 62.704 324.833 62.704Z" fill="#877F7F"/>
</svg>
